#!OML:ASF H:\Terrain\Patient Classification 1\Walking\liu\liu.ASF
:FULLY-SPECIFIED
:DEGREES
49
root 9.453422 17.446989 -32.406551 7.334723 -11.191071 -3.503379
lowerback -7.452786 0.662585 0.122984
upperback -2.470358 0.790523 3.844071
thorax 1.581162 0.399528 3.961562
lowerneck -23.451229 -4.672074 -14.217170
upperneck 18.673712 -5.478341 15.827351
head 10.552860 -1.767843 7.187191
rclavicle 0.000000 0.000000
rhumerus -51.839039 21.756899 -104.173737
rradius 54.170048
rwrist -27.544880
rhand -33.516449 -31.668449
rfingers 7.837522
rthumb -4.147891 -64.609489
lclavicle 0.000000 0.000000
lhumerus -49.653671 -3.480246 99.069077
lradius 23.227049
lwrist -4.493335
lhand 4.450809 -18.055620
lfingers 7.837522
lthumb 32.405781 12.396450
rfemur 18.452829 4.787596 23.338919
rtibia 21.494770
rfoot 3.728021 0.274648
rtoes -16.673580
lfemur -43.579250 9.251671 -19.563940
ltibia 42.380360
lfoot -4.529360 7.397808
ltoes -2.246563
50
root 9.495486 17.468550 -32.238029 7.010102 -11.293151 -3.090989
lowerback -7.072307 0.664686 -0.086872
upperback -2.500058 0.819803 3.627305
thorax 1.337600 0.416627 3.850253
lowerneck -23.447821 -4.685164 -14.159860
upperneck 18.683500 -5.543714 15.942631
head 10.568667 -1.782330 7.211171
rclavicle 0.000000 0.000000
rhumerus -51.459213 21.056530 -104.093773
rradius 52.598263
rwrist -26.845390
rhand -33.122650 -30.553490
rfingers 7.837522
rthumb -3.767621 -63.501019
lclavicle 0.000000 0.000000
lhumerus -49.380432 -3.406601 98.653831
lradius 22.846781
lwrist -4.757115
lhand 4.804481 -17.612980
lfingers 7.837522
lthumb 32.743370 12.779250
rfemur 17.378130 4.021446 22.450121
rtibia 24.636810
rfoot 4.541603 0.384089
rtoes -17.158791
lfemur -42.580341 9.294527 -20.190500
ltibia 42.309303
lfoot -4.918749 7.303109
ltoes -2.376825
51
root 9.531654 17.488791 -32.081501 6.896725 -11.494671 -2.777698
lowerback -6.659752 0.762359 -0.318918
upperback -2.707749 0.978591 3.474603
thorax 0.883421 0.502459 3.824601
lowerneck -23.556610 -4.767378 -14.347740
upperneck 19.079941 -5.677760 16.161091
head 10.760552 -1.829839 7.323877
rclavicle 0.000000 0.000000
rhumerus -51.201153 20.142981 -103.873436
rradius 51.012058
rwrist -25.952080
rhand -32.115490 -29.113150
rfingers 7.837522
rthumb -2.794957 -62.074207
lclavicle 0.000000 0.000000
lhumerus -49.164391 -3.020732 98.107674
lradius 22.341770
lwrist -5.420877
lhand 5.104396 -17.762909
lfingers 7.837522
lthumb 33.029591 12.577730
rfemur 16.018970 3.359400 21.693211
rtibia 27.758610
rfoot 5.786231 0.066879
rtoes -16.409359
lfemur -41.811771 9.428265 -20.686600
ltibia 42.204689
lfoot -5.746521 7.226659
ltoes -2.152590
52
root 9.571684 17.520359 -31.916830 6.988212 -11.759550 -2.389365
lowerback -6.816645 0.928084 -0.510776
upperback -2.730739 1.211276 3.302288
thorax 0.932198 0.619030 3.772274
lowerneck -23.588621 -4.911027 -14.257871
upperneck 19.089510 -5.840131 15.879710
head 10.783178 -1.927750 7.177126
rclavicle 0.000000 -0.000000
rhumerus -50.928570 19.371660 -103.571487
rradius 49.997311
rwrist -25.547060
rhand -32.075890 -29.313129
rfingers 7.837522
rthumb -2.756743 -62.274632
lclavicle 0.000000 -0.000000
lhumerus -48.641338 -2.822754 97.729286
lradius 21.956768
lwrist -6.348947
lhand 4.671513 -18.295309
lfingers 7.837522
lthumb 32.616432 12.119471
rfemur 14.377220 2.758019 20.804741
rtibia 30.923199
rfoot 7.075321 -0.417310
rtoes -13.862860
lfemur -41.199070 9.438198 -21.257719
ltibia 42.064220
lfoot -6.597987 7.240607
ltoes -0.788291
53
root 9.609589 17.560181 -31.757660 7.140199 -12.032680 -2.100406
lowerback -7.054234 0.951532 -0.716625
upperback -2.671185 1.251283 3.263568
thorax 1.119624 0.637338 3.856974
lowerneck -23.883308 -4.943994 -14.158211
upperneck 19.061680 -5.814182 15.598660
head 10.810008 -1.928542 7.058238
rclavicle 0.000000 0.000000
rhumerus -50.167698 19.052660 -103.351929
rradius 48.757610
rwrist -25.300991
rhand -32.785500 -30.934528
rfingers 7.837522
rthumb -3.442010 -63.887012
lclavicle 0.000000 0.000000
lhumerus -48.166363 -2.680733 97.503784
lradius 21.880760
lwrist -6.883734
lhand 4.023470 -18.366701
lfingers 7.837522
lthumb 31.997789 12.156540
rfemur 12.579380 2.246706 20.105909
rtibia 34.105938
rfoot 8.080391 -0.886375
rtoes -12.906740
lfemur -40.661720 9.564566 -21.790121
ltibia 41.864128
lfoot -7.058227 7.240156
ltoes -0.794056
54
root 9.645218 17.596809 -31.607399 7.268602 -12.253780 -2.093608
lowerback -7.036931 0.849485 -0.695673
upperback -2.740617 1.115191 3.269332
thorax 1.047677 0.570394 3.840441
lowerneck -24.189220 -4.764529 -14.016090
upperneck 19.308189 -5.622694 15.704260
head 10.922120 -1.807619 7.115812
rclavicle -0.000000 -0.000000
rhumerus -49.151848 18.786900 -103.364029
rradius 46.855053
rwrist -24.660681
rhand -32.699589 -30.816719
rfingers 7.837522
rthumb -3.359048 -63.770409
lclavicle -0.000000 -0.000000
lhumerus -48.003342 -2.505085 97.132751
lradius 21.885599
lwrist -7.015866
lhand 3.652528 -18.461960
lfingers 7.837522
lthumb 31.643480 12.122001
rfemur 10.797787 1.816771 19.837841
rtibia 37.216957
rfoot 9.167027 -1.598267
rtoes -13.495790
lfemur -40.058807 9.723318 -22.007151
ltibia 41.618607
lfoot -7.662380 7.235239
ltoes -2.489135
55
root 9.680859 17.628490 -31.459671 7.138461 -12.476860 -1.870022
lowerback -6.720472 0.840716 -0.849618
upperback -2.852366 1.119261 3.155603
thorax 0.755863 0.577064 3.802271
lowerneck -24.066792 -4.656487 -13.721069
upperneck 19.345039 -5.576351 15.656300
head 10.896115 -1.774949 7.053915
rclavicle 0.000000 0.000000
rhumerus -48.667740 18.101599 -103.225868
rradius 45.315273
rwrist -23.767809
rhand -32.190731 -29.565472
rfingers 7.837522
rthumb -2.867634 -62.525650
lclavicle 0.000000 0.000000
lhumerus -47.860779 -2.416425 96.731247
lradius 21.725441
lwrist -7.453897
lhand 3.321197 -19.148140
lfingers 7.837522
lthumb 31.326900 11.489170
rfemur 9.297926 1.542486 19.445580
rtibia 40.246029
rfoot 10.271997 -2.677312
rtoes -12.266760
lfemur -39.166271 9.814167 -22.386869
ltibia 41.306763
lfoot -8.406112 7.255094
ltoes -3.423387
